<svg xmlns="http://www.w3.org/2000/svg" version="1.1" xmlns:xlink="http://www.w3.org/1999/xlink" xmlns:svgjs="http://svgjs.dev/svgjs" width="1440" height="560" preserveAspectRatio="none" viewBox="0 0 1440 560"><g mask="url(&quot;#SvgjsMask1045&quot;)" fill="none"><rect width="1440" height="560" x="0" y="0" fill="rgba(255, 255, 255, 1)"></rect><path d="M687.299,154.168C717.743,153.952,732.669,120.166,746.881,93.242C759.764,68.835,771.326,42.076,759.672,17.058C746.252,-11.75,719.064,-35.631,687.299,-34.661C656.653,-33.725,635.337,-6.446,622.199,21.257C611.031,44.806,614.772,70.691,626.236,94.097C639.697,121.58,656.697,154.385,687.299,154.168" fill="rgba(255, 134, 0, 0.4)" class="triangle-float3"></path><path d="M1520.9470396733516 354.789367266605L1499.5830034575597 262.25155982056947 1371.4583103964023 340.566517867275z" fill="rgba(255, 134, 0, 0.4)" class="triangle-float1"></path><path d="M502.887,331.719C519.355,331.497,536.662,326.644,544.677,312.256C552.534,298.152,547.17,281.196,538.678,267.465C530.705,254.573,518.043,244.908,502.887,244.683C487.355,244.452,473.552,253.272,465.205,266.373C456.099,280.665,450.631,298.732,459.096,313.412C467.567,328.102,485.932,331.948,502.887,331.719" fill="rgba(255, 134, 0, 0.4)" class="triangle-float1"></path><path d="M467.3511015873996 371.9462617936379L311.19878429104057 327.1703053333617 266.42282783076433 483.32262262972074 422.5751451271234 528.098579089997z" fill="rgba(255, 134, 0, 0.4)" class="triangle-float1"></path><path d="M847.685,579.696C894.08,577.615,925.68,536.531,946.174,494.855C963.996,458.612,964.18,417.351,944.991,381.813C924.708,344.248,890.362,313.546,847.685,312.455C803.335,311.321,764.171,338.556,741.362,376.607C717.827,415.869,711.376,463.879,732.607,504.433C755.392,547.955,798.608,581.897,847.685,579.696" fill="rgba(255, 134, 0, 0.4)" class="triangle-float3"></path><path d="M169.84732135818422 158.85837733310643L48.78281294245875 126.41924007104193 137.40818409611973 279.9228857488319z" fill="rgba(255, 134, 0, 0.4)" class="triangle-float3"></path></g><defs><mask id="SvgjsMask1045"><rect width="1440" height="560" fill="#ffffff"></rect></mask><style>
                @keyframes float1 {
                    0%{transform: translate(0, 0)}
                    50%{transform: translate(-10px, 0)}
                    100%{transform: translate(0, 0)}
                }

                .triangle-float1 {
                    animation: float1 5s infinite;
                }

                @keyframes float2 {
                    0%{transform: translate(0, 0)}
                    50%{transform: translate(-5px, -5px)}
                    100%{transform: translate(0, 0)}
                }

                .triangle-float2 {
                    animation: float2 4s infinite;
                }

                @keyframes float3 {
                    0%{transform: translate(0, 0)}
                    50%{transform: translate(0, -10px)}
                    100%{transform: translate(0, 0)}
                }

                .triangle-float3 {
                    animation: float3 6s infinite;
                }
            </style></defs></svg>