<svg xmlns="http://www.w3.org/2000/svg" version="1.1" xmlns:xlink="http://www.w3.org/1999/xlink" xmlns:svgjs="http://svgjs.dev/svgjs" width="1440" height="560" preserveAspectRatio="none" viewBox="0 0 1440 560"><g mask="url(&quot;#SvgjsMask1009&quot;)" fill="none"><path d="M358.35 83.26L423.3 120.76L423.3 195.76L358.35 233.26L293.39 195.76L293.39 120.76zM423.3 -29.24L488.26 8.26L488.26 83.26L423.3 120.76L358.35 83.26L358.35 8.26zM488.26 83.26L553.21 120.76L553.21 195.76L488.26 233.26L423.3 195.76L423.3 120.76zM488.26 533.26L553.21 570.76L553.21 645.76L488.26 683.26L423.3 645.76L423.3 570.76zM618.16 83.26L683.12 120.76L683.12 195.76L618.16 233.26L553.21 195.76L553.21 120.76zM553.21 195.76L618.16 233.26L618.16 308.26L553.21 345.76L488.26 308.26L488.26 233.26zM553.21 420.76L618.16 458.26L618.16 533.26L553.21 570.76L488.26 533.26L488.26 458.26zM618.16 533.26L683.12 570.76L683.12 645.76L618.16 683.26L553.21 645.76L553.21 570.76zM683.12 420.76L748.07 458.26L748.07 533.26L683.12 570.76L618.16 533.26L618.16 458.26zM877.98 533.26L942.93 570.76L942.93 645.76L877.98 683.26L813.02 645.76L813.02 570.76zM942.93 -29.24L1007.89 8.26L1007.89 83.26L942.93 120.76L877.98 83.26L877.98 8.26zM1007.89 308.26L1072.84 345.76L1072.84 420.76L1007.89 458.26L942.93 420.76L942.93 345.76zM942.93 420.76L1007.89 458.26L1007.89 533.26L942.93 570.76L877.98 533.26L877.98 458.26zM1072.84 420.76L1137.79 458.26L1137.79 533.26L1072.84 570.76L1007.89 533.26L1007.89 458.26zM1137.79 533.26L1202.75 570.76L1202.75 645.76L1137.79 683.26L1072.84 645.76L1072.84 570.76zM1202.75 -29.24L1267.7 8.26L1267.7 83.26L1202.75 120.76L1137.79 83.26L1137.79 8.26zM1332.65 -29.24L1397.61 8.26L1397.61 83.26L1332.65 120.76L1267.7 83.26L1267.7 8.26zM1332.65 195.76L1397.61 233.26L1397.61 308.26L1332.65 345.76L1267.7 308.26L1267.7 233.26zM1332.65 420.76L1397.61 458.26L1397.61 533.26L1332.65 570.76L1267.7 533.26L1267.7 458.26zM1462.56 -29.24L1527.52 8.26L1527.52 83.26L1462.56 120.76L1397.61 83.26L1397.61 8.26zM1527.52 308.26L1592.47 345.76L1592.47 420.76L1527.52 458.26L1462.56 420.76L1462.56 345.76z" stroke="rgba(255, 121, 0, 1)" stroke-width="2"></path><path d="M350.85 83.26 a7.5 7.5 0 1 0 15 0 a7.5 7.5 0 1 0 -15 0zM415.8 120.76 a7.5 7.5 0 1 0 15 0 a7.5 7.5 0 1 0 -15 0zM415.8 195.76 a7.5 7.5 0 1 0 15 0 a7.5 7.5 0 1 0 -15 0zM350.85 233.26 a7.5 7.5 0 1 0 15 0 a7.5 7.5 0 1 0 -15 0zM285.89 195.76 a7.5 7.5 0 1 0 15 0 a7.5 7.5 0 1 0 -15 0zM285.89 120.76 a7.5 7.5 0 1 0 15 0 a7.5 7.5 0 1 0 -15 0zM415.8 -29.24 a7.5 7.5 0 1 0 15 0 a7.5 7.5 0 1 0 -15 0zM480.76 8.26 a7.5 7.5 0 1 0 15 0 a7.5 7.5 0 1 0 -15 0zM480.76 83.26 a7.5 7.5 0 1 0 15 0 a7.5 7.5 0 1 0 -15 0zM350.85 8.26 a7.5 7.5 0 1 0 15 0 a7.5 7.5 0 1 0 -15 0zM545.71 120.76 a7.5 7.5 0 1 0 15 0 a7.5 7.5 0 1 0 -15 0zM545.71 195.76 a7.5 7.5 0 1 0 15 0 a7.5 7.5 0 1 0 -15 0zM480.76 233.26 a7.5 7.5 0 1 0 15 0 a7.5 7.5 0 1 0 -15 0zM480.76 533.26 a7.5 7.5 0 1 0 15 0 a7.5 7.5 0 1 0 -15 0zM545.71 570.76 a7.5 7.5 0 1 0 15 0 a7.5 7.5 0 1 0 -15 0zM545.71 645.76 a7.5 7.5 0 1 0 15 0 a7.5 7.5 0 1 0 -15 0zM480.76 683.26 a7.5 7.5 0 1 0 15 0 a7.5 7.5 0 1 0 -15 0zM415.8 645.76 a7.5 7.5 0 1 0 15 0 a7.5 7.5 0 1 0 -15 0zM415.8 570.76 a7.5 7.5 0 1 0 15 0 a7.5 7.5 0 1 0 -15 0zM610.66 83.26 a7.5 7.5 0 1 0 15 0 a7.5 7.5 0 1 0 -15 0zM675.62 120.76 a7.5 7.5 0 1 0 15 0 a7.5 7.5 0 1 0 -15 0zM675.62 195.76 a7.5 7.5 0 1 0 15 0 a7.5 7.5 0 1 0 -15 0zM610.66 233.26 a7.5 7.5 0 1 0 15 0 a7.5 7.5 0 1 0 -15 0zM610.66 308.26 a7.5 7.5 0 1 0 15 0 a7.5 7.5 0 1 0 -15 0zM545.71 345.76 a7.5 7.5 0 1 0 15 0 a7.5 7.5 0 1 0 -15 0zM480.76 308.26 a7.5 7.5 0 1 0 15 0 a7.5 7.5 0 1 0 -15 0zM545.71 420.76 a7.5 7.5 0 1 0 15 0 a7.5 7.5 0 1 0 -15 0zM610.66 458.26 a7.5 7.5 0 1 0 15 0 a7.5 7.5 0 1 0 -15 0zM610.66 533.26 a7.5 7.5 0 1 0 15 0 a7.5 7.5 0 1 0 -15 0zM480.76 458.26 a7.5 7.5 0 1 0 15 0 a7.5 7.5 0 1 0 -15 0zM675.62 570.76 a7.5 7.5 0 1 0 15 0 a7.5 7.5 0 1 0 -15 0zM675.62 645.76 a7.5 7.5 0 1 0 15 0 a7.5 7.5 0 1 0 -15 0zM610.66 683.26 a7.5 7.5 0 1 0 15 0 a7.5 7.5 0 1 0 -15 0zM675.62 420.76 a7.5 7.5 0 1 0 15 0 a7.5 7.5 0 1 0 -15 0zM740.57 458.26 a7.5 7.5 0 1 0 15 0 a7.5 7.5 0 1 0 -15 0zM740.57 533.26 a7.5 7.5 0 1 0 15 0 a7.5 7.5 0 1 0 -15 0zM870.48 533.26 a7.5 7.5 0 1 0 15 0 a7.5 7.5 0 1 0 -15 0zM935.43 570.76 a7.5 7.5 0 1 0 15 0 a7.5 7.5 0 1 0 -15 0zM935.43 645.76 a7.5 7.5 0 1 0 15 0 a7.5 7.5 0 1 0 -15 0zM870.48 683.26 a7.5 7.5 0 1 0 15 0 a7.5 7.5 0 1 0 -15 0zM805.52 645.76 a7.5 7.5 0 1 0 15 0 a7.5 7.5 0 1 0 -15 0zM805.52 570.76 a7.5 7.5 0 1 0 15 0 a7.5 7.5 0 1 0 -15 0zM935.43 -29.24 a7.5 7.5 0 1 0 15 0 a7.5 7.5 0 1 0 -15 0zM1000.39 8.26 a7.5 7.5 0 1 0 15 0 a7.5 7.5 0 1 0 -15 0zM1000.39 83.26 a7.5 7.5 0 1 0 15 0 a7.5 7.5 0 1 0 -15 0zM935.43 120.76 a7.5 7.5 0 1 0 15 0 a7.5 7.5 0 1 0 -15 0zM870.48 83.26 a7.5 7.5 0 1 0 15 0 a7.5 7.5 0 1 0 -15 0zM870.48 8.26 a7.5 7.5 0 1 0 15 0 a7.5 7.5 0 1 0 -15 0zM1000.39 308.26 a7.5 7.5 0 1 0 15 0 a7.5 7.5 0 1 0 -15 0zM1065.34 345.76 a7.5 7.5 0 1 0 15 0 a7.5 7.5 0 1 0 -15 0zM1065.34 420.76 a7.5 7.5 0 1 0 15 0 a7.5 7.5 0 1 0 -15 0zM1000.39 458.26 a7.5 7.5 0 1 0 15 0 a7.5 7.5 0 1 0 -15 0zM935.43 420.76 a7.5 7.5 0 1 0 15 0 a7.5 7.5 0 1 0 -15 0zM935.43 345.76 a7.5 7.5 0 1 0 15 0 a7.5 7.5 0 1 0 -15 0zM1000.39 533.26 a7.5 7.5 0 1 0 15 0 a7.5 7.5 0 1 0 -15 0zM870.48 458.26 a7.5 7.5 0 1 0 15 0 a7.5 7.5 0 1 0 -15 0zM1130.29 458.26 a7.5 7.5 0 1 0 15 0 a7.5 7.5 0 1 0 -15 0zM1130.29 533.26 a7.5 7.5 0 1 0 15 0 a7.5 7.5 0 1 0 -15 0zM1065.34 570.76 a7.5 7.5 0 1 0 15 0 a7.5 7.5 0 1 0 -15 0zM1195.25 570.76 a7.5 7.5 0 1 0 15 0 a7.5 7.5 0 1 0 -15 0zM1195.25 645.76 a7.5 7.5 0 1 0 15 0 a7.5 7.5 0 1 0 -15 0zM1130.29 683.26 a7.5 7.5 0 1 0 15 0 a7.5 7.5 0 1 0 -15 0zM1065.34 645.76 a7.5 7.5 0 1 0 15 0 a7.5 7.5 0 1 0 -15 0zM1195.25 -29.24 a7.5 7.5 0 1 0 15 0 a7.5 7.5 0 1 0 -15 0zM1260.2 8.26 a7.5 7.5 0 1 0 15 0 a7.5 7.5 0 1 0 -15 0zM1260.2 83.26 a7.5 7.5 0 1 0 15 0 a7.5 7.5 0 1 0 -15 0zM1195.25 120.76 a7.5 7.5 0 1 0 15 0 a7.5 7.5 0 1 0 -15 0zM1130.29 83.26 a7.5 7.5 0 1 0 15 0 a7.5 7.5 0 1 0 -15 0zM1130.29 8.26 a7.5 7.5 0 1 0 15 0 a7.5 7.5 0 1 0 -15 0zM1325.15 -29.24 a7.5 7.5 0 1 0 15 0 a7.5 7.5 0 1 0 -15 0zM1390.11 8.26 a7.5 7.5 0 1 0 15 0 a7.5 7.5 0 1 0 -15 0zM1390.11 83.26 a7.5 7.5 0 1 0 15 0 a7.5 7.5 0 1 0 -15 0zM1325.15 120.76 a7.5 7.5 0 1 0 15 0 a7.5 7.5 0 1 0 -15 0zM1325.15 195.76 a7.5 7.5 0 1 0 15 0 a7.5 7.5 0 1 0 -15 0zM1390.11 233.26 a7.5 7.5 0 1 0 15 0 a7.5 7.5 0 1 0 -15 0zM1390.11 308.26 a7.5 7.5 0 1 0 15 0 a7.5 7.5 0 1 0 -15 0zM1325.15 345.76 a7.5 7.5 0 1 0 15 0 a7.5 7.5 0 1 0 -15 0zM1260.2 308.26 a7.5 7.5 0 1 0 15 0 a7.5 7.5 0 1 0 -15 0zM1260.2 233.26 a7.5 7.5 0 1 0 15 0 a7.5 7.5 0 1 0 -15 0zM1325.15 420.76 a7.5 7.5 0 1 0 15 0 a7.5 7.5 0 1 0 -15 0zM1390.11 458.26 a7.5 7.5 0 1 0 15 0 a7.5 7.5 0 1 0 -15 0zM1390.11 533.26 a7.5 7.5 0 1 0 15 0 a7.5 7.5 0 1 0 -15 0zM1325.15 570.76 a7.5 7.5 0 1 0 15 0 a7.5 7.5 0 1 0 -15 0zM1260.2 533.26 a7.5 7.5 0 1 0 15 0 a7.5 7.5 0 1 0 -15 0zM1260.2 458.26 a7.5 7.5 0 1 0 15 0 a7.5 7.5 0 1 0 -15 0zM1455.06 -29.24 a7.5 7.5 0 1 0 15 0 a7.5 7.5 0 1 0 -15 0zM1520.02 8.26 a7.5 7.5 0 1 0 15 0 a7.5 7.5 0 1 0 -15 0zM1520.02 83.26 a7.5 7.5 0 1 0 15 0 a7.5 7.5 0 1 0 -15 0zM1455.06 120.76 a7.5 7.5 0 1 0 15 0 a7.5 7.5 0 1 0 -15 0zM1520.02 308.26 a7.5 7.5 0 1 0 15 0 a7.5 7.5 0 1 0 -15 0zM1584.97 345.76 a7.5 7.5 0 1 0 15 0 a7.5 7.5 0 1 0 -15 0zM1584.97 420.76 a7.5 7.5 0 1 0 15 0 a7.5 7.5 0 1 0 -15 0zM1520.02 458.26 a7.5 7.5 0 1 0 15 0 a7.5 7.5 0 1 0 -15 0zM1455.06 420.76 a7.5 7.5 0 1 0 15 0 a7.5 7.5 0 1 0 -15 0zM1455.06 345.76 a7.5 7.5 0 1 0 15 0 a7.5 7.5 0 1 0 -15 0z" fill="rgba(255, 121, 0, 1)"></path><path d="M70.16 39.09L113.47 64.09L113.47 114.09L70.16 139.09L26.86 114.09L26.86 64.09zM26.86 114.09L70.16 139.09L70.16 189.09L26.86 214.09L-16.44 189.09L-16.44 139.09zM156.77 39.09L200.07 64.09L200.07 114.09L156.77 139.09L113.47 114.09L113.47 64.09zM200.07 414.09L243.37 439.09L243.37 489.09L200.07 514.09L156.77 489.09L156.77 439.09zM243.37 489.09L286.68 514.09L286.68 564.09L243.37 589.09L200.07 564.09L200.07 514.09zM329.98 39.09L373.28 64.09L373.28 114.09L329.98 139.09L286.68 114.09L286.68 64.09zM329.98 189.09L373.28 214.09L373.28 264.09L329.98 289.09L286.68 264.09L286.68 214.09zM329.98 339.09L373.28 364.09L373.28 414.09L329.98 439.09L286.68 414.09L286.68 364.09zM329.98 489.09L373.28 514.09L373.28 564.09L329.98 589.09L286.68 564.09L286.68 514.09zM459.89 -35.91L503.19 -10.91L503.19 39.09L459.89 64.09L416.58 39.09L416.58 -10.91zM459.89 114.09L503.19 139.09L503.19 189.09L459.89 214.09L416.58 189.09L416.58 139.09zM546.49 114.09L589.79 139.09L589.79 189.09L546.49 214.09L503.19 189.09L503.19 139.09zM546.49 264.09L589.79 289.09L589.79 339.09L546.49 364.09L503.19 339.09L503.19 289.09zM589.79 339.09L633.1 364.09L633.1 414.09L589.79 439.09L546.49 414.09L546.49 364.09zM546.49 414.09L589.79 439.09L589.79 489.09L546.49 514.09L503.19 489.09L503.19 439.09zM633.1 -35.91L676.4 -10.91L676.4 39.09L633.1 64.09L589.79 39.09L589.79 -10.91zM633.1 264.09L676.4 289.09L676.4 339.09L633.1 364.09L589.79 339.09L589.79 289.09zM763 39.09L806.31 64.09L806.31 114.09L763 139.09L719.7 114.09L719.7 64.09zM719.7 414.09L763 439.09L763 489.09L719.7 514.09L676.4 489.09L676.4 439.09zM849.61 39.09L892.91 64.09L892.91 114.09L849.61 139.09L806.31 114.09L806.31 64.09zM849.61 189.09L892.91 214.09L892.91 264.09L849.61 289.09L806.31 264.09L806.31 214.09zM806.31 264.09L849.61 289.09L849.61 339.09L806.31 364.09L763 339.09L763 289.09zM849.61 489.09L892.91 514.09L892.91 564.09L849.61 589.09L806.31 564.09L806.31 514.09zM892.91 -35.91L936.21 -10.91L936.21 39.09L892.91 64.09L849.61 39.09L849.61 -10.91zM892.91 114.09L936.21 139.09L936.21 189.09L892.91 214.09L849.61 189.09L849.61 139.09zM936.21 189.09L979.52 214.09L979.52 264.09L936.21 289.09L892.91 264.09L892.91 214.09zM892.91 264.09L936.21 289.09L936.21 339.09L892.91 364.09L849.61 339.09L849.61 289.09zM1022.82 39.09L1066.12 64.09L1066.12 114.09L1022.82 139.09L979.52 114.09L979.52 64.09zM979.52 114.09L1022.82 139.09L1022.82 189.09L979.52 214.09L936.21 189.09L936.21 139.09zM1022.82 489.09L1066.12 514.09L1066.12 564.09L1022.82 589.09L979.52 564.09L979.52 514.09zM1066.12 264.09L1109.42 289.09L1109.42 339.09L1066.12 364.09L1022.82 339.09L1022.82 289.09zM1196.03 39.09L1239.33 64.09L1239.33 114.09L1196.03 139.09L1152.72 114.09L1152.72 64.09zM1152.72 414.09L1196.03 439.09L1196.03 489.09L1152.72 514.09L1109.42 489.09L1109.42 439.09zM1239.33 -35.91L1282.63 -10.91L1282.63 39.09L1239.33 64.09L1196.03 39.09L1196.03 -10.91zM1239.33 114.09L1282.63 139.09L1282.63 189.09L1239.33 214.09L1196.03 189.09L1196.03 139.09zM1239.33 414.09L1282.63 439.09L1282.63 489.09L1239.33 514.09L1196.03 489.09L1196.03 439.09zM1325.93 114.09L1369.24 139.09L1369.24 189.09L1325.93 214.09L1282.63 189.09L1282.63 139.09zM1369.24 189.09L1412.54 214.09L1412.54 264.09L1369.24 289.09L1325.93 264.09L1325.93 214.09zM1325.93 264.09L1369.24 289.09L1369.24 339.09L1325.93 364.09L1282.63 339.09L1282.63 289.09zM1455.84 489.09L1499.14 514.09L1499.14 564.09L1455.84 589.09L1412.54 564.09L1412.54 514.09z" stroke="rgba(0, 0, 0, 0)" stroke-width="2"></path></g><defs><mask id="SvgjsMask1009"><rect width="1440" height="560" fill="#ffffff"></rect></mask></defs></svg>