<svg xmlns="http://www.w3.org/2000/svg" version="1.1" xmlns:xlink="http://www.w3.org/1999/xlink" xmlns:svgjs="http://svgjs.dev/svgjs" width="1440" height="560" preserveAspectRatio="none" viewBox="0 0 1440 560"><g mask="url(&quot;#SvgjsMask1006&quot;)" fill="none"><path d="M60.81 124.44a51.85 51.85 0 1 0 3.46-103.64z" fill="rgba(255, 182, 0, 1)"></path><path d="M177.39 285.14a3.33 3.33 0 1 0-2.62-6.12z" stroke="rgba(255, 182, 0, 1)"></path><path d="M1131.12 424.68 a55.65 55.65 0 1 0 111.3 0 a55.65 55.65 0 1 0 -111.3 0z" fill="rgba(255, 84, 0, 1)"></path><path d="M114.42 489.92L134.37 489.92L134.37 509.87L114.42 509.87z" fill="rgba(255, 84, 0, 1)"></path><path d="M1139.32 550.98a10.49 10.49 0 1 0 13.6 15.98z" fill="rgba(255, 109, 0, 1)"></path><path d="M1069.63 310.75a4.41 4.41 0 1 0-7.43-4.75z" fill="rgba(255, 182, 0, 1)"></path><path d="M613.51 143.15a3.46 3.46 0 1 0-5.68 3.95z" stroke="rgba(255, 84, 0, 1)"></path><path d="M777.03 543.05L797.92 543.05L797.92 595.23L777.03 595.23z" fill="rgba(255, 109, 0, 1)"></path><path d="M451.59 140.2L502.62 140.2L502.62 191.23L451.59 191.23z" fill="rgba(255, 84, 0, 1)"></path><path d="M1293.6 276.71L1296.83 276.71L1296.83 279.94L1293.6 279.94z" fill="rgba(255, 182, 0, 1)"></path><path d="M541.81 344.65L570.6 344.65L570.6 391.18L541.81 391.18z" fill="rgba(255, 84, 0, 1)"></path><path d="M617.91 324.47a40.11 40.11 0 1 0 31.45 73.8z" stroke="rgba(255, 182, 0, 1)"></path><path d="M612.65 140.5L651.9 140.5L651.9 145.52L612.65 145.52z" fill="rgba(255, 84, 0, 1)"></path><path d="M371.92 211.31L380.58 211.31L380.58 233.8L371.92 233.8z" stroke="rgba(255, 109, 0, 1)"></path><path d="M234.94 233.76a8.61 8.61 0 1 0 16.24-5.74z" stroke="rgba(255, 109, 0, 1)"></path><path d="M222.99 193.01 a45.47 45.47 0 1 0 90.94 0 a45.47 45.47 0 1 0 -90.94 0z" stroke="rgba(255, 109, 0, 1)"></path><path d="M539.79 340.74 a7.69 7.69 0 1 0 15.38 0 a7.69 7.69 0 1 0 -15.38 0z" fill="rgba(255, 182, 0, 1)"></path><path d="M641.98 67.33 a40.67 40.67 0 1 0 81.34 0 a40.67 40.67 0 1 0 -81.34 0z" stroke="rgba(255, 109, 0, 1)"></path><path d="M1043.17 215.17L1045.84 215.17L1045.84 217.84L1043.17 217.84z" fill="rgba(255, 109, 0, 1)"></path><path d="M480.16 96.49 a0.21 0.21 0 1 0 0.42 0 a0.21 0.21 0 1 0 -0.42 0z" stroke="rgba(255, 109, 0, 1)"></path><path d="M202.05 186.71L241.08 186.71L241.08 199.83L202.05 199.83z" fill="rgba(255, 182, 0, 1)"></path><path d="M1388.73 168.56L1412.43 168.56L1412.43 192.26L1388.73 192.26z" fill="rgba(255, 109, 0, 1)"></path><path d="M1426.6 295.91 a0.63 0.63 0 1 0 1.26 0 a0.63 0.63 0 1 0 -1.26 0z" stroke="rgba(255, 182, 0, 1)"></path><path d="M128.14 469.72a51.73 51.73 0 1 0-49.43-90.89z" fill="rgba(255, 84, 0, 1)"></path><path d="M439.27 184.29L439.81 184.29L439.81 187.04L439.27 187.04z" fill="rgba(255, 109, 0, 1)"></path><path d="M105.22 95.59L132.72 95.59L132.72 123.09L105.22 123.09z" stroke="rgba(255, 109, 0, 1)"></path><path d="M570.4 27.32 a9.8 9.8 0 1 0 19.6 0 a9.8 9.8 0 1 0 -19.6 0z" stroke="rgba(255, 109, 0, 1)"></path><path d="M445.89 484.65 a49.15 49.15 0 1 0 98.3 0 a49.15 49.15 0 1 0 -98.3 0z" fill="rgba(255, 109, 0, 1)"></path><path d="M1054.41 130.75L1109.63 130.75L1109.63 163.88L1054.41 163.88z" stroke="rgba(255, 182, 0, 1)"></path><path d="M455.29 360.44L464.29 360.44L464.29 369.44L455.29 369.44z" stroke="rgba(255, 182, 0, 1)"></path><path d="M915.95 192L960.71 192L960.71 236.76L915.95 236.76z" fill="rgba(255, 182, 0, 1)"></path><path d="M1381.94 58.26L1419.77 58.26L1419.77 96.09L1381.94 96.09z" fill="rgba(255, 182, 0, 1)"></path><path d="M515.54 408.55a40.52 40.52 0 1 0 23.84-77.45z" stroke="rgba(255, 182, 0, 1)"></path></g><defs><mask id="SvgjsMask1006"><rect width="1440" height="560" fill="#ffffff"></rect></mask></defs></svg>