<svg xmlns="http://www.w3.org/2000/svg" version="1.1" xmlns:xlink="http://www.w3.org/1999/xlink" xmlns:svgjs="http://svgjs.dev/svgjs" width="1440" height="560" preserveAspectRatio="none" viewBox="0 0 1440 560"><g mask="url(&quot;#SvgjsMask1040&quot;)" fill="none"><rect width="1440" height="560" x="0" y="0" fill="rgba(255, 182, 0, 1)"></rect><path d="M 0,167 C 57.6,145.2 172.8,43.2 288,58 C 403.2,72.8 460.8,236.8 576,241 C 691.2,245.2 748.8,81.2 864,79 C 979.2,76.8 1036.8,233 1152,230 C 1267.2,227 1382.4,97.2 1440,64L1440 560L0 560z" fill="rgba(255, 255, 255, 1)"></path><path d="M 0,328 C 72,364 216,494.4 360,508 C 504,521.6 576,411 720,396 C 864,381 936,435.8 1080,433 C 1224,430.2 1368,392.2 1440,382L1440 560L0 560z" fill="rgba(255, 121, 0, 1)"></path></g><defs><mask id="SvgjsMask1040"><rect width="1440" height="560" fill="#ffffff"></rect></mask></defs></svg>